<svg xmlns="http://www.w3.org/2000/svg" viewBox="0 0 32 32" width="100%" height="100%">
  <rect width="32" height="32" fill="#fff" />
  <path d="M0 0h32v2.46H0zm0 4.92h32V7.38H0zm0 4.92h32v2.46H0zm0 4.92h32v2.46H0zm0 4.92h32v2.46H0zm0 4.92h32v2.46H0zm0 4.92h32v2.46H0z" fill="#b22234" />
  <rect width="14.77" height="17.23" fill="#3c3b6e" />
  <circle cx="2.5" cy="2.5" r="0.4" fill="#fff" />
  <circle cx="5.5" cy="2.5" r="0.4" fill="#fff" />
  <circle cx="8.5" cy="2.5" r="0.4" fill="#fff" />
  <circle cx="11.5" cy="2.5" r="0.4" fill="#fff" />
  <circle cx="4" cy="5.5" r="0.4" fill="#fff" />
  <circle cx="7" cy="5.5" r="0.4" fill="#fff" />
  <circle cx="10" cy="5.5" r="0.4" fill="#fff" />
  <circle cx="2.5" cy="8.5" r="0.4" fill="#fff" />
  <circle cx="5.5" cy="8.5" r="0.4" fill="#fff" />
  <circle cx="8.5" cy="8.5" r="0.4" fill="#fff" />
  <circle cx="11.5" cy="8.5" r="0.4" fill="#fff" />
  <circle cx="4" cy="11.5" r="0.4" fill="#fff" />
  <circle cx="7" cy="11.5" r="0.4" fill="#fff" />
  <circle cx="10" cy="11.5" r="0.4" fill="#fff" />
  <circle cx="2.5" cy="14.5" r="0.4" fill="#fff" />
  <circle cx="5.5" cy="14.5" r="0.4" fill="#fff" />
  <circle cx="8.5" cy="14.5" r="0.4" fill="#fff" />
  <circle cx="11.5" cy="14.5" r="0.4" fill="#fff" />
</svg>
